<svg id="Board" xmlns="http://www.w3.org/2000/svg" xmlns:xlink="http://www.w3.org/1999/xlink" width="394.176" height="566.646" viewBox="0 0 394.176 566.646">
  <defs>
    <clipPath id="clip-path">
      <path id="Path_76" data-name="Path 76" d="M1022.925,549.676c-2.1-15.1-10.88-25.725-28.022-30.743H839.808c-18.242,6.243-26.937,17.179-29.564,31.1" transform="translate(-810.244 -518.933)" fill="#004f69" clip-rule="evenodd"/>
    </clipPath>
  </defs>
  <path id="Path_72" data-name="Path 72" d="M1040.48,498.432a28.482,28.482,0,0,0-28.468-28.47H674.773a28.482,28.482,0,0,0-28.468,28.47v509.7a28.482,28.482,0,0,0,28.468,28.47h337.239a28.482,28.482,0,0,0,28.468-28.47Z" transform="translate(-646.304 -469.962)" fill="#4b4c5b" fill-rule="evenodd"/>
  <path id="Path_73" data-name="Path 73" d="M1034.347,487.751l-31.235.01" transform="translate(-797.244 -477.487)" fill="none" stroke="#004f69" stroke-linejoin="round" stroke-miterlimit="1.5" stroke-width="10.081" fill-rule="evenodd"/>
  <path id="Path_74" data-name="Path 74" d="M1030.612,567.406a23.138,23.138,0,0,0-23.127-23.127H733.53A23.138,23.138,0,0,0,710.4,567.406v434.633a23.138,23.138,0,0,0,23.127,23.127h273.955a23.137,23.137,0,0,0,23.127-23.127Z" transform="translate(-673.42 -501.4)" fill="#f9f9f9" fill-rule="evenodd"/>
  <path id="Path_79" data-name="Path 79" d="M1056.563,487.76c14.385-.324,19.444,7.476,21.855,19.04" transform="translate(-819.855 -477.487)" fill="none" stroke="#004f69" stroke-linejoin="round" stroke-miterlimit="1.5" stroke-width="10.081" fill-rule="evenodd"/>
  <path id="Path_78" data-name="Path 78" d="M810.244,572.6l212.681-.32" transform="translate(-715.656 -513.247)" fill="none" stroke="#1989af" stroke-linejoin="round" stroke-miterlimit="1.5" stroke-width="6.72" fill-rule="evenodd"/>
  <g id="Group_42" data-name="Group 42" transform="translate(94.589 10.273)">
    <path id="Path_75" data-name="Path 75" d="M1022.925,549.676c-2.1-15.1-10.88-25.725-28.022-30.743H839.808c-18.242,6.243-26.937,17.179-29.564,31.1" transform="translate(-810.244 -500.952)" fill="#007196" fill-rule="evenodd"/>
    <g id="Group_41" data-name="Group 41" transform="translate(0 17.982)" clip-path="url(#clip-path)">
      <rect id="_-Rectangle-" width="278.199" height="191.12" transform="translate(111.279 -50.492)" fill="#004f69"/>
    </g>
    <path id="Path_77" data-name="Path 77" d="M911.477,506.808a21.122,21.122,0,0,1,1.65-5,24.523,24.523,0,0,1,22.121-13.938c10.479-.1,29.1-.1,29.1-.1" transform="translate(-853.068 -487.768)" fill="none" stroke="#007196" stroke-linejoin="round" stroke-miterlimit="1.5" stroke-width="10.081" fill-rule="evenodd"/>
  </g>
  <g id="board-2" data-name="board" transform="translate(99.276 91.235)">
    <g id="text" transform="translate(0 273.988)">
      <path id="Path_80" data-name="Path 80" d="M879.269,1109.892H942.9" transform="translate(-836.131 -1109.892)" fill="#1989af" stroke="#999" stroke-linejoin="round" stroke-miterlimit="1.5" stroke-width="10.081" fill-rule="evenodd"/>
      <path id="Path_81" data-name="Path 81" d="M804.5,1193.221H911.274" transform="translate(-804.502 -1145.143)" fill="#1989af" stroke="#999" stroke-linejoin="round" stroke-miterlimit="1.5" stroke-width="10.081" fill-rule="evenodd"/>
      <path id="Path_82" data-name="Path 82" d="M1034.741,1109.892h41.712" transform="translate(-901.899 -1109.892)" fill="#1989af" stroke="#999" stroke-linejoin="round" stroke-miterlimit="1.5" stroke-width="10.081" fill-rule="evenodd"/>
      <path id="Path_83" data-name="Path 83" d="M1034.741,1193.221h41.712" transform="translate(-901.899 -1145.143)" fill="#1989af" stroke="#999" stroke-linejoin="round" stroke-miterlimit="1.5" stroke-width="10.081" fill-rule="evenodd"/>
      <path id="Path_84" data-name="Path 84" d="M1151.2,1109.892h21.859" transform="translate(-951.164 -1109.892)" fill="#1989af" stroke="#999" stroke-linejoin="round" stroke-miterlimit="1.5" stroke-width="10.081" fill-rule="evenodd"/>
      <path id="Path_85" data-name="Path 85" d="M1151.2,1193.221h21.859" transform="translate(-951.164 -1145.143)" fill="#1989af" stroke="#999" stroke-linejoin="round" stroke-miterlimit="1.5" stroke-width="10.081" fill-rule="evenodd"/>
      <path id="Path_86" data-name="Path 86" d="M804.5,1135.292h76.293" transform="translate(-804.502 -1120.637)" fill="#999" stroke="#004f69" stroke-linejoin="round" stroke-miterlimit="1.5" stroke-width="10.081" fill-rule="evenodd"/>
      <path id="Path_87" data-name="Path 87" d="M804.5,1218.621h76.293" transform="translate(-804.502 -1155.887)" fill="#999" stroke="#004f69" stroke-linejoin="round" stroke-miterlimit="1.5" stroke-width="10.081" fill-rule="evenodd"/>
      <path id="Path_88" data-name="Path 88" d="M971.963,1135.292h125.273" transform="translate(-875.343 -1120.637)" fill="#1989af" stroke="#999" stroke-linejoin="round" stroke-miterlimit="1.5" stroke-width="10.081" fill-rule="evenodd"/>
      <path id="Path_89" data-name="Path 89" d="M971.963,1218.621h125.273" transform="translate(-875.343 -1155.887)" fill="#1989af" stroke="#999" stroke-linejoin="round" stroke-miterlimit="1.5" stroke-width="10.081" fill-rule="evenodd"/>
      <path id="Path_90" data-name="Path 90" d="M804.5,1163.82h144.29" transform="translate(-804.502 -1132.705)" fill="#1989af" stroke="#999" stroke-linejoin="round" stroke-miterlimit="1.5" stroke-width="10.081" fill-rule="evenodd"/>
      <path id="Path_91" data-name="Path 91" d="M804.5,1247.149h144.29" transform="translate(-804.502 -1167.956)" fill="#1989af" stroke="#999" stroke-linejoin="round" stroke-miterlimit="1.5" stroke-width="10.081" fill-rule="evenodd"/>
      <path id="Path_92" data-name="Path 92" d="M1107.036,1163.82h47.34" transform="translate(-932.482 -1132.705)" fill="#1989af" stroke="#999" stroke-linejoin="round" stroke-miterlimit="1.5" stroke-width="10.081" fill-rule="evenodd"/>
      <path id="Path_93" data-name="Path 93" d="M1107.036,1247.149h47.34" transform="translate(-932.482 -1167.956)" fill="#1989af" stroke="#999" stroke-linejoin="round" stroke-miterlimit="1.5" stroke-width="10.081" fill-rule="evenodd"/>
    </g>
    <g id="text1" transform="translate(0 376.32)">
      <path id="Path_94" data-name="Path 94" d="M804.5,1287.253H911.274" transform="translate(-804.502 -1287.253)" fill="#1989af" stroke="#999" stroke-linejoin="round" stroke-miterlimit="1.5" stroke-width="10.081" fill-rule="evenodd"/>
      <path id="Path_95" data-name="Path 95" d="M804.5,1309.689H911.274" transform="translate(-804.502 -1296.744)" fill="#1989af" stroke="#999" stroke-linejoin="round" stroke-miterlimit="1.5" stroke-width="10.081" fill-rule="evenodd"/>
      <path id="Path_96" data-name="Path 96" d="M1034.741,1287.253h41.712" transform="translate(-901.899 -1287.253)" fill="#1989af" stroke="#999" stroke-linejoin="round" stroke-miterlimit="1.5" stroke-width="10.081" fill-rule="evenodd"/>
      <path id="Path_97" data-name="Path 97" d="M1034.741,1309.689h41.712" transform="translate(-901.899 -1296.744)" fill="#1989af" stroke="#999" stroke-linejoin="round" stroke-miterlimit="1.5" stroke-width="10.081" fill-rule="evenodd"/>
      <path id="Path_98" data-name="Path 98" d="M1151.2,1287.253h21.859" transform="translate(-951.164 -1287.253)" fill="#1989af" stroke="#999" stroke-linejoin="round" stroke-miterlimit="1.5" stroke-width="10.081" fill-rule="evenodd"/>
      <path id="Path_99" data-name="Path 99" d="M1151.2,1309.689h21.859" transform="translate(-951.164 -1296.744)" fill="#1989af" stroke="#999" stroke-linejoin="round" stroke-miterlimit="1.5" stroke-width="10.081" fill-rule="evenodd"/>
      <path id="Path_100" data-name="Path 100" d="M804.5,1294.091h76.293" transform="translate(-804.502 -1290.145)" fill="#999" stroke="#004f69" stroke-linejoin="round" stroke-miterlimit="1.5" stroke-width="10.081" fill-rule="evenodd"/>
      <path id="Path_101" data-name="Path 101" d="M804.5,1316.527h76.293" transform="translate(-804.502 -1299.636)" fill="#999" stroke="#004f69" stroke-linejoin="round" stroke-miterlimit="1.5" stroke-width="10.081" fill-rule="evenodd"/>
      <path id="Path_102" data-name="Path 102" d="M971.963,1294.091h125.273" transform="translate(-875.343 -1290.145)" fill="#1989af" stroke="#999" stroke-linejoin="round" stroke-miterlimit="1.5" stroke-width="10.081" fill-rule="evenodd"/>
      <path id="Path_103" data-name="Path 103" d="M971.963,1316.527h125.273" transform="translate(-875.343 -1299.636)" fill="#1989af" stroke="#999" stroke-linejoin="round" stroke-miterlimit="1.5" stroke-width="10.081" fill-rule="evenodd"/>
      <path id="Path_104" data-name="Path 104" d="M804.5,1301.772h144.29" transform="translate(-804.502 -1293.395)" fill="#1989af" stroke="#999" stroke-linejoin="round" stroke-miterlimit="1.5" stroke-width="10.081" fill-rule="evenodd"/>
      <path id="Path_105" data-name="Path 105" d="M804.5,1324.208h144.29" transform="translate(-804.502 -1302.886)" fill="#1989af" stroke="#999" stroke-linejoin="round" stroke-miterlimit="1.5" stroke-width="10.081" fill-rule="evenodd"/>
      <path id="Path_106" data-name="Path 106" d="M1107.036,1301.772h47.34" transform="translate(-932.482 -1293.395)" fill="#1989af" stroke="#999" stroke-linejoin="round" stroke-miterlimit="1.5" stroke-width="10.081" fill-rule="evenodd"/>
      <path id="Path_107" data-name="Path 107" d="M1107.036,1324.208h47.34" transform="translate(-932.482 -1302.886)" fill="#1989af" stroke="#999" stroke-linejoin="round" stroke-miterlimit="1.5" stroke-width="10.081" fill-rule="evenodd"/>
    </g>
    <path id="Path_108" data-name="Path 108" d="M903.444,961.012v22.575H835.5v45.262" transform="translate(-817.615 -772.924)" fill="none" stroke="#004f69" stroke-linejoin="round" stroke-miterlimit="1.5" stroke-width="10.081" fill-rule="evenodd"/>
    <rect id="Rectangle_47" data-name="Rectangle 47" width="23.315" height="22.09" transform="translate(6.227 251.898)" fill="#004f69" stroke="#004f69" stroke-linejoin="round" stroke-miterlimit="1.5" stroke-width="10.081"/>
    <path id="Path_109" data-name="Path 109" d="M890.156,914.678a86.215,86.215,0,0,0,51.053,20.295,89.123,89.123,0,0,0,29.837-3.276l-12.46-35.506a44.53,44.53,0,0,1-14.919,1.636,43.092,43.092,0,0,1-25.525-10.147l-27.986,27Z" transform="translate(-840.736 -741.903)" fill="#004f69" fill-rule="evenodd"/>
    <path id="Path_110" data-name="Path 110" d="M960.313,813.45c37.652-13.687,62.507-47.945,62.507-86.153,0-50.929-43.643-92.276-97.4-92.276s-97.4,41.347-97.4,92.276a89.886,89.886,0,0,0,28.526,65.25l30.5-28.893a50.082,50.082,0,0,1-15.9-36.357c0-28.377,24.318-51.415,54.269-51.415S979.69,698.92,979.69,727.3c0,21.289-13.848,40.378-34.827,48l15.45,38.15Z" transform="translate(-814.452 -635.021)" fill="#004f69" fill-rule="evenodd"/>
  </g>
  <text id="Visitors" transform="translate(40.532 293.874) rotate(-90)" fill="#004f69" font-size="55" font-family="Play-Bold, Play" font-weight="700"><tspan x="0" y="52">Visitors</tspan></text>
</svg>
