<?xml version="1.0" encoding="UTF-8" standalone="no"?><!DOCTYPE svg PUBLIC "-//W3C//DTD SVG 1.1//EN" "http://www.w3.org/Graphics/SVG/1.1/DTD/svg11.dtd"><svg width="100%" height="100%" viewBox="0 0 512 512" version="1.1" xmlns="http://www.w3.org/2000/svg" xmlns:xlink="http://www.w3.org/1999/xlink" xml:space="preserve" xmlns:serif="http://www.serif.com/" style="fill-rule:evenodd;clip-rule:evenodd;stroke-linejoin:round;stroke-miterlimit:1.41421;"><path d="M497,0l-482,0c-8.284,0 -15,6.716 -15,15l0,385.6c0,8.284 6.716,15 15,15l177.801,0l0,81.4c0,6.067 3.654,11.536 9.26,13.858c1.855,0.769 3.805,1.142 5.736,1.142c3.904,0 7.74,-1.524 10.61,-4.394l92.005,-92.007l186.588,0c8.283,0 15,-6.716 15,-15l0,-385.599c0,-8.284 -6.717,-15 -15,-15Z" style="fill:#004f69;fill-rule:nonzero;"/></svg>